<svg width="29" height="12" viewBox="0 0 29 12" fill="none" xmlns="http://www.w3.org/2000/svg">
<path d="M3.97686 10.5643C4.27764 10.5643 4.55564 10.5028 4.81084 10.3798C5.06605 10.2567 5.27569 10.0881 5.43975 9.8739C5.60381 9.65515 5.69724 9.40678 5.72002 9.12878H6.92315C6.90036 9.56628 6.75225 9.97416 6.47881 10.3524C6.20993 10.7261 5.85674 11.0292 5.41924 11.2616C4.98174 11.4895 4.50095 11.6034 3.97686 11.6034C3.42087 11.6034 2.93552 11.5054 2.5208 11.3094C2.11065 11.1135 1.76885 10.8446 1.49541 10.5028C1.22653 10.161 1.02373 9.76908 0.887015 9.32703C0.754854 8.88041 0.688773 8.40873 0.688773 7.91199V7.62488C0.688773 7.12813 0.754854 6.65873 0.887015 6.21667C1.02373 5.77006 1.22653 5.37585 1.49541 5.03406C1.76885 4.69226 2.11065 4.42338 2.5208 4.22742C2.93552 4.03145 3.42087 3.93347 3.97686 3.93347C4.55564 3.93347 5.06149 4.05196 5.49444 4.28894C5.92738 4.52136 6.2669 4.84037 6.51299 5.24597C6.76364 5.64701 6.90036 6.10274 6.92315 6.61316H5.72002C5.69724 6.30782 5.61065 6.0321 5.46026 5.78601C5.31442 5.53992 5.1139 5.34395 4.8587 5.19812C4.60804 5.04773 4.3141 4.97253 3.97686 4.97253C3.58949 4.97253 3.26364 5.05001 2.99932 5.20496C2.73955 5.35535 2.5322 5.56042 2.37725 5.82019C2.22686 6.0754 2.11748 6.36023 2.04912 6.67468C1.98532 6.98458 1.95342 7.30131 1.95342 7.62488V7.91199C1.95342 8.23556 1.98532 8.55457 2.04912 8.86902C2.11293 9.18347 2.22002 9.4683 2.37041 9.72351C2.52536 9.97872 2.73272 10.1838 2.99248 10.3387C3.25681 10.4891 3.58493 10.5643 3.97686 10.5643ZM9.71905 0.966675V11.4667H8.44756V0.966675H9.71905ZM13.1233 4.07019V11.4667H11.8519V4.07019H13.1233ZM11.7562 2.10828C11.7562 1.9032 11.8177 1.73002 11.9407 1.58875C12.0683 1.44747 12.2552 1.37683 12.5013 1.37683C12.7428 1.37683 12.9274 1.44747 13.055 1.58875C13.1871 1.73002 13.2532 1.9032 13.2532 2.10828C13.2532 2.30424 13.1871 2.47286 13.055 2.61414C12.9274 2.75085 12.7428 2.81921 12.5013 2.81921C12.2552 2.81921 12.0683 2.75085 11.9407 2.61414C11.8177 2.47286 11.7562 2.30424 11.7562 2.10828ZM18.1136 10.5643C18.4144 10.5643 18.6924 10.5028 18.9476 10.3798C19.2028 10.2567 19.4124 10.0881 19.5765 9.8739C19.7405 9.65515 19.834 9.40678 19.8567 9.12878H21.0599C21.0371 9.56628 20.889 9.97416 20.6155 10.3524C20.3467 10.7261 19.9935 11.0292 19.556 11.2616C19.1185 11.4895 18.6377 11.6034 18.1136 11.6034C17.5576 11.6034 17.0722 11.5054 16.6575 11.3094C16.2474 11.1135 15.9056 10.8446 15.6321 10.5028C15.3633 10.161 15.1605 9.76908 15.0237 9.32703C14.8916 8.88041 14.8255 8.40873 14.8255 7.91199V7.62488C14.8255 7.12813 14.8916 6.65873 15.0237 6.21667C15.1605 5.77006 15.3633 5.37585 15.6321 5.03406C15.9056 4.69226 16.2474 4.42338 16.6575 4.22742C17.0722 4.03145 17.5576 3.93347 18.1136 3.93347C18.6924 3.93347 19.1982 4.05196 19.6312 4.28894C20.0641 4.52136 20.4036 4.84037 20.6497 5.24597C20.9004 5.64701 21.0371 6.10274 21.0599 6.61316H19.8567C19.834 6.30782 19.7474 6.0321 19.597 5.78601C19.4511 5.53992 19.2506 5.34395 18.9954 5.19812C18.7448 5.04773 18.4508 4.97253 18.1136 4.97253C17.7262 4.97253 17.4004 5.05001 17.136 5.20496C16.8763 5.35535 16.6689 5.56042 16.514 5.82019C16.3636 6.0754 16.2542 6.36023 16.1858 6.67468C16.122 6.98458 16.0901 7.30131 16.0901 7.62488V7.91199C16.0901 8.23556 16.122 8.55457 16.1858 8.86902C16.2496 9.18347 16.3567 9.4683 16.5071 9.72351C16.6621 9.97872 16.8694 10.1838 17.1292 10.3387C17.3935 10.4891 17.7217 10.5643 18.1136 10.5643ZM23.7532 0.966675V11.4667H22.4817V0.966675H23.7532ZM28.2718 4.07019L25.0452 7.52234L23.2405 9.39539L23.138 8.04871L24.43 6.50378L26.7269 4.07019H28.2718ZM27.1165 11.4667L24.4778 7.93933L25.1341 6.8114L28.6067 11.4667H27.1165Z" fill="#FF0000"/>
<path d="M0.053031 12.8339H28.6136V13.5175H0.053031V12.8339Z" fill="#FF0000"/>
</svg>
