<svg width="26" height="26" viewBox="0 0 26 26" fill="none" xmlns="http://www.w3.org/2000/svg">
<path d="M13.2808 0.824768C9.95358 0.829384 6.76401 2.14888 4.41176 4.49381C2.05951 6.83875 0.736644 10.0177 0.733337 13.3332C0.733337 20.234 6.35833 25.8442 13.2808 25.8442C16.6096 25.8403 19.801 24.5209 22.155 22.1756C24.5091 19.8303 25.8337 16.6504 25.8383 13.3332C25.8324 10.0167 24.5073 6.83786 22.1534 4.49321C19.7996 2.14855 16.609 0.829378 13.2808 0.824768ZM21.5983 11.6566L13.3658 15.533C13.1746 15.6206 12.9641 15.6583 12.7542 15.6426C12.5443 15.6269 12.3418 15.5583 12.1658 15.4433C12.0157 15.3483 11.888 15.2221 11.7913 15.0733C11.6947 14.9245 11.6314 14.7567 11.6058 14.5814L11.5883 4.92285C11.5883 4.59117 11.7206 4.27307 11.9559 4.03854C12.1913 3.80401 12.5105 3.67225 12.8433 3.67225C13.1762 3.67225 13.4954 3.80401 13.7307 4.03854C13.9661 4.27307 14.0983 4.59117 14.0983 4.92285V12.4165L20.5283 9.39959C20.8287 9.2582 21.1731 9.24149 21.4858 9.35315C21.6407 9.40844 21.7831 9.49358 21.9049 9.60371C22.0267 9.71383 22.1256 9.84679 22.1958 9.99499C22.2661 10.1432 22.3064 10.3037 22.3143 10.4674C22.3223 10.6312 22.2979 10.7948 22.2424 10.9491C22.1869 11.1034 22.1015 11.2453 21.991 11.3667C21.8805 11.4881 21.747 11.5866 21.5983 11.6566Z" fill="#FAFF00"/>
</svg>
