<svg width="26" height="26" viewBox="0 0 26 26" fill="none" xmlns="http://www.w3.org/2000/svg">
<path d="M12.8667 0.433716C16.2614 0.433716 19.5172 1.77755 21.9176 4.16959C24.3181 6.56163 25.6667 9.80594 25.6667 13.1888C25.6667 16.5717 24.3181 19.816 21.9176 22.208C19.5172 24.6 16.2614 25.9439 12.8667 25.9439C9.47188 25.9439 6.21615 24.6 3.81568 22.208C1.41522 19.816 0.0666504 16.5717 0.0666504 13.1888C0.0666504 9.80594 1.41522 6.56163 3.81568 4.16959C6.21615 1.77755 9.47188 0.433716 12.8667 0.433716ZM11.2721 15.7052L8.42871 12.8699C8.32677 12.7683 8.20576 12.6878 8.07257 12.6328C7.93939 12.5778 7.79664 12.5495 7.65248 12.5495C7.50832 12.5495 7.36557 12.5778 7.23239 12.6328C7.0992 12.6878 6.97819 12.7683 6.87625 12.8699C6.67038 13.0751 6.55473 13.3533 6.55473 13.6434C6.55473 13.9335 6.67038 14.2118 6.87625 14.4169L10.4968 18.0248C10.5985 18.1269 10.7194 18.2079 10.8526 18.2632C10.9858 18.3185 11.1287 18.347 11.2731 18.347C11.4174 18.347 11.5603 18.3185 11.6935 18.2632C11.8267 18.2079 11.9476 18.1269 12.0493 18.0248L19.5464 10.5521C19.6497 10.451 19.7319 10.3304 19.7882 10.1975C19.8445 10.0645 19.8739 9.92176 19.8745 9.77744C19.8752 9.63313 19.8472 9.4901 19.7921 9.35662C19.7371 9.22314 19.656 9.10185 19.5537 8.99974C19.4513 8.89763 19.3297 8.81672 19.1958 8.76169C19.0619 8.70665 18.9184 8.67857 18.7736 8.67907C18.6288 8.67957 18.4855 8.70864 18.352 8.76461C18.2185 8.82057 18.0974 8.90232 17.9958 9.00513L11.2721 15.7052Z" fill="#00FF0A"/>
</svg>
